
  <svg width="40" height="40" style="border-style: none; border-radius: 0.75rem">
    <svg xmlns="http://www.w3.org/2000/svg" viewBox="0 0 559.04 562.83">
      <g fill="#06b8f9">
        <path
          d="M119.95 347.38h138.78l-68.7-159.95-70.08 159.95zm174.17 104.87H83l-.24.56-2.48 5.7c-2.1 4.87-5 11.69-8.43 19.55-6.75 15.72-15.2 35.55-22 52-4.53 11-8.32 20.46-10.36 26.17l-.28.77a66.05 66.05 0 0 0 27.16 5.81h271.06z"
        ></path>
        <path
          d="M492.67 0H66.37A66.36 66.36 0 0 0 0 66.37v286.05C54.44 221.47 129.23 64 129.24 63.94l.67-1.43h117.8l210 500.32h34.92A66.36 66.36 0 0 0 559 496.46V66.37A66.36 66.36 0 0 0 492.67 0z"
        ></path>
      </g>
    </svg>
  </svg>
